<svg width="151" height="132" viewBox="0 0 151 132" fill="none" xmlns="http://www.w3.org/2000/svg">
<circle cx="53.1765" cy="53.1765" r="53.1765" fill="#FDE615"/>
<path d="M94.963 96.9635V132H62V104.555C62 89.6642 63.8279 78.8613 67.5138 72.1752C72.3384 63.2993 80.0098 56.5547 90.468 52L97.9596 63.6788C91.6067 66.219 86.932 70.0146 83.9354 75.0073C80.9387 80.0292 79.2606 87.3285 78.901 96.9343H94.963V96.9635ZM148.003 96.9635V132H115.04V104.555C115.04 89.6642 116.868 78.8613 120.554 72.1752C125.379 63.2993 133.05 56.5547 143.508 52L151 63.6788C144.647 66.219 139.972 70.0146 136.976 75.0073C133.979 80.0292 132.301 87.3285 131.941 96.9343H148.003V96.9635Z" fill="#121212"/>
</svg>
